<?xml version="1.0" ?><svg viewBox="0 0 512 512" xmlns="http://www.w3.org/2000/svg"><g id="a"/><g id="b"/><g id="c"><g><path d="M352.23682,209.62891l6.49854,2.16602,2.5293-7.58984-6.49805-2.16602c-3.30225-1.10059-5.95996-3.57617-7.29199-6.7915-1.33203-3.21582-1.20312-6.8457,.35352-9.95898l15.74951-31.49951-7.15527-3.57812-15.74951,31.49951c-2.59473,5.18896-2.80908,11.23877-.58936,16.59863,2.22021,5.35938,6.64941,9.48535,12.15332,11.31982Z"/><rect height="8.00006" transform="translate(-23.01168 190.53287) rotate(-26.56818)" width="35.77709" x="374.11146" y="139.99997"/><rect height="8" width="24" x="376" y="164"/><rect height="8" width="24" x="296" y="164"/><path d="M352,220c-11.02783,0-20,8.97217-20,20s8.97217,20,20,20,20-8.97217,20-20-8.97217-20-20-20Zm0,32c-6.6167,0-12-5.3833-12-12s5.3833-12,12-12,12,5.3833,12,12-5.3833,12-12,12Z"/><path d="M453.98926,323.67188l-49.98926-7.14124v-40.10974c24.01721-13.54199,39.38782-38.94916,39.98193-66.74609l6.58887-6.58838c6.08057-6.08105,9.4292-14.16553,9.4292-22.76514,0-13.87891-8.84668-26.15283-22.01367-30.54248l-1.98633-.66162v-42.35712c5.56702-3.16956,10.52954-7.466,14.49658-12.75519,6.12842-8.17139,9.50342-18.29688,9.50342-28.51123V24c0-1.28564-.61816-2.49316-1.66113-3.24512-1.04199-.75098-2.38281-.95703-3.604-.5498l-18.73682,6.24561c-18.54297,6.18164-38.55664,7.87842-57.87695,4.90527l-38.94873-5.99219c-22.69775-3.4917-45.93066,5.29834-60.63281,22.94092-11.9165,14.2998-17.24121,33.06934-14.60889,51.49609l3.73755,26.16241c-2.2785-1.24982-4.89117-1.9632-7.66821-1.9632-2.91571,0-5.64331,.79675-8,2.16498v-18.16498c0-8.82227-7.17773-16-16-16s-16,7.17773-16,16v10.16498c-2.35669-1.36823-5.08429-2.16498-8-2.16498-8.82227,0-16,7.17773-16,16v10.16498c-2.35669-1.36823-5.08429-2.16498-8-2.16498-8.82227,0-16,7.17773-16,16v64.7749c0,8.14355,2.80176,16.12988,7.88867,22.48877l23.521,29.40137-63.58496,156.07178c-5.77979,14.1875-4.12695,30.24756,4.4209,42.96045,8.54834,12.71289,22.79785,20.30273,38.11719,20.30273,21.69385,0,40.13232-14.79053,44.83887-35.96826l27.7749-124.98779,47.24445-6.74902,46.5788,62.10498c.75586,1.00732,1.94141,1.6001,3.2002,1.6001s2.44434-.59277,3.2002-1.6001l46.57874-62.10498,51.07898,7.29688c14.87061,2.12402,28.92383,8.20996,40.64062,17.59912l5.00293-6.24316c-12.8335-10.28369-28.2251-16.94922-44.51221-19.27588Zm-23.25439-167.87695l4.72119,1.57373c9.89551,3.29834,16.54395,12.52246,16.54395,22.95264,0,6.46289-2.5166,12.53857-7.08643,17.10791l-7.74219,7.74219c-.75,.75049-1.17139,1.76758-1.17139,2.82861,0,27.59375-16.23193,52.80225-41.35303,64.22119-27.10254,12.31934-58.19141,12.31982-85.29395-.00049-25.12109-11.41846-41.35303-36.62646-41.35303-64.2207,0-1.06104-.42139-2.07812-1.17139-2.82861l-7.74219-7.74219c-4.56982-4.56934-7.08643-10.64502-7.08643-17.10791,0-10.43018,6.64844-19.6543,16.54395-22.95264l4.72119-1.57373c1.6333-.54443,2.73486-2.07324,2.73486-3.79492v-22.04578c24.36633-18.8349,55.68536-27.29083,86.24658-23.21936l43.95459,5.86084c7.46112,.99457,14.91321,.18268,21.79883-2.19885v41.60315c0,1.72168,1.10156,3.25049,2.73486,3.79492Zm-170.73486-23.79492c4.41113,0,8,3.58887,8,8v9.11719l-1.98633,.66162c-5.55945,1.85345-10.33533,5.12396-14.01367,9.31586v-19.09467c0-4.41113,3.58887-8,8-8Zm-40.60791,322.29639c-3.88672,17.48877-19.11377,29.70361-37.0293,29.70361-12.84033,0-24.31348-6.11133-31.47803-16.7666-7.16504-10.65527-8.49561-23.58691-3.65088-35.47803l64.4707-158.24609c.54688-1.34277,.32471-2.87598-.58105-4.0083l-24.98779-31.23438c-3.95654-4.94629-6.13574-11.1582-6.13574-17.4917v-64.7749c0-4.41113,3.58887-8,8-8s8,3.58887,8,8v60h8v-84c0-4.41113,3.58887-8,8-8s8,3.58887,8,8v84h8V108c0-4.41113,3.58887-8,8-8s8,3.58887,8,8v108h8v-14.44897c.46021,.52307,.93213,1.03827,1.4292,1.5354l6.58887,6.58838c.354,16.5636,5.96112,32.27576,15.50952,45.14038l-14.3562,14.3562c-.5376,.53809-.91113,1.21826-1.07617,1.96094l-40.70312,183.16406Zm48.25977-180.2915l12.98877-12.98828c5.53601,6.05811,12.04565,11.28076,19.35938,15.40479v40.10925l-43.1687,6.16687,10.82056-48.69263Zm84.34814,103.32861l-44-58.66699v-38.30396c14.04309,6.0603,29.02008,9.09839,43.99951,9.09839s29.9577-3.03857,44.00049-9.09888v38.30444l-44,58.66699Z"/><path d="M90.67188,422.19189l-52.1001,26.0498,15.41211-50.09229c.41016-1.33398,.0957-2.78564-.83057-3.83008-16.22021-18.29248-25.15332-41.84521-25.15332-66.31934,0-34.27051,17.25488-65.77783,46.15625-84.28223l-4.31348-6.7373c-31.20996,19.98193-49.84277,54.00781-49.84277,91.01953,0,25.67725,9.104,50.41455,25.68457,69.91895l-17.50781,56.90479c-.4707,1.53027,.01611,3.19385,1.23779,4.22852,.73779,.625,1.65771,.94775,2.58643,.94775,.6084,0,1.2207-.13867,1.78809-.42236l58.93896-29.46973c11.31934,3.91064,23.17676,5.89209,35.27197,5.89209v-8c-11.74365,0-23.24072-2.01514-34.17236-5.98975-1.03174-.37402-2.17236-.30957-3.15576,.18164Z"/><rect height="8" width="24" x="48" y="348"/><rect height="8" width="24" x="88" y="348"/><rect height="8" width="24" x="128" y="348"/><rect height="8" width="80" x="392" y="420"/><rect height="35.77709" transform="translate(43.67184 358.66253) rotate(-63.43495)" width="8.00006" x="307.99997" y="126.11146"/><path d="M50.07977,108.54028c-3.91064,11.31934-5.89209,23.17676-5.89209,35.27197,0,59.55127,48.44873,108,108,108,7.68799,0,15.28613-.80908,22.71307-2.39948l-1.07147-1.33929c-6.21729-7.77197-9.6416-17.5332-9.6416-27.48633v-56.58716h-12.18768v-8h12.18768v-.18774c0-13.23389,10.7666-24,24-24,0-13.2334,10.7666-24,24-24,0-13.2334,10.7666-24,24-24,2.20569,0,4.34039,.30518,6.37061,.86499-19.75604-30.12421-53.65961-48.86499-90.37061-48.86499-25.67725,0-50.41455,9.104-69.91895,25.68457L25.36395,43.98901c-1.53125-.47168-3.19336,.0166-4.22852,1.23779-1.03467,1.22168-1.24121,2.94238-.52539,4.37451l29.46973,58.93896Zm61.92023,47.45972h24v8h-24v-8Zm-40,0h24v8h-24v-8Z"/></g></g><g id="d"/></svg>